<?xml version="1.0" encoding="UTF-8" standalone="no"?>
<!-- Created with Inkscape (http://www.inkscape.org/) -->

<svg
   xmlns:dc="http://purl.org/dc/elements/1.1/"
   xmlns:cc="http://creativecommons.org/ns#"
   xmlns:rdf="http://www.w3.org/1999/02/22-rdf-syntax-ns#"
   xmlns:svg="http://www.w3.org/2000/svg"
   xmlns="http://www.w3.org/2000/svg"
   xmlns:sodipodi="http://sodipodi.sourceforge.net/DTD/sodipodi-0.dtd"
   xmlns:inkscape="http://www.inkscape.org/namespaces/inkscape"
   width="210mm"
   height="297mm"
   viewBox="0 0 210 297"
   version="1.1"
   id="svg1006"
   inkscape:version="0.92.2 5c3e80d, 2017-08-06"
   sodipodi:docname="WARRIOR.svg">
  <defs
     id="defs1000" />
  <sodipodi:namedview
     id="base"
     pagecolor="#ffffff"
     bordercolor="#666666"
     borderopacity="1.0"
     inkscape:pageopacity="0.0"
     inkscape:pageshadow="2"
     inkscape:zoom="0.7"
     inkscape:cx="443.48745"
     inkscape:cy="475.61909"
     inkscape:document-units="mm"
     inkscape:current-layer="layer1"
     showgrid="false"
     inkscape:window-width="1440"
     inkscape:window-height="791"
     inkscape:window-x="0"
     inkscape:window-y="0"
     inkscape:window-maximized="1" />
  <metadata
     id="metadata1003">
    <rdf:RDF>
      <cc:Work
         rdf:about="">
        <dc:format>image/svg+xml</dc:format>
        <dc:type
           rdf:resource="http://purl.org/dc/dcmitype/StillImage" />
        <dc:title />
      </cc:Work>
    </rdf:RDF>
  </metadata>
  <g
     inkscape:label="Layer 1"
     inkscape:groupmode="layer"
     id="layer1">
    <g
       id="g935"
       inkscape:export-xdpi="11.702433"
       inkscape:export-ydpi="11.702433">
      <path
         style="fill:#000000;fill-opacity:1;stroke:#000000;stroke-width:2.46697497;stroke-miterlimit:4;stroke-dasharray:none;stroke-opacity:1"
         inkscape:connector-curvature="0"
         d="m 130.82515,95.997103 c 0.10615,-0.634426 0.41264,-1.123429 0.49012,-1.241604 0.0904,-0.137871 0.10472,-0.395997 0.0369,-0.722074 -0.27135,-1.304312 -1.74754,-3.412558 -4.44247,-5.165197 -1.71354,-1.123343 -3.56779,-1.860209 -5.1172,-2.031143 -1.09838,-0.128692 -1.73696,0.0722 -1.99312,0.312597 -0.0129,0.0197 -0.0129,0.0197 -0.0258,0.03939 -0.0353,0.07539 -0.087,0.154175 -0.14203,0.216654 -0.20998,0.298829 -1.28507,1.917276 -3.04449,4.579599 0.53518,0.364928 1.05405,0.733247 1.60553,1.094783 2.85589,1.872238 5.81912,3.688126 8.79801,5.41571 0.5413,0.312624 1.07583,0.59264 1.61713,0.905264 z"
         id="path1176" />
      <path
         style="fill:#000000;fill-opacity:1;stroke:#000000;stroke-width:2.46697497;stroke-miterlimit:4;stroke-dasharray:none;stroke-opacity:1"
         inkscape:connector-curvature="0"
         d="m 26.64155,228.69304 c -0.01291,0.0197 -0.02582,0.0394 -0.03874,0.0591 l -0.542304,0.82722 c -0.02178,0.14061 -0.05646,0.30091 -0.130544,0.43539 -1.214069,3.07616 -0.04198,6.82956 2.751428,8.64676 2.836194,1.85933 6.61519,1.46436 9.010351,-0.922 0.113471,-0.10865 0.246639,-0.2044 0.366894,-0.28044 L 104.43917,136.203 c -0.44074,-0.40159 -0.86519,-0.80656 -1.30254,-1.19184 -0.3124,-0.2752 -0.62479,-0.5504 -0.93719,-0.8256 -0.99288,-0.84803 -2.01498,-1.67297 -3.026909,-2.449 -1.396321,-1.07027 -2.867377,-2.09097 -4.347953,-3.07568 -0.571178,-0.37444 -1.138964,-0.73259 -1.70675,-1.09073 C 65.624156,169.40127 26.64155,228.69304 26.64155,228.69304 Z"
         id="path1178" />
      <path
         style="fill:#000000;fill-opacity:1;stroke:#000000;stroke-width:2.46697497;stroke-miterlimit:4;stroke-dasharray:none;stroke-opacity:1"
         inkscape:connector-curvature="0"
         d="m 68.161485,93.214924 c -4.170572,6.361741 -6.028414,13.620106 -5.22325,20.188386 9.916785,0.57336 20.701583,4.01086 30.560538,9.78417 l 0.537914,0.29632 c 0.288653,0.16107 0.577306,0.32214 0.869351,0.49952 0.702265,0.43222 1.424226,0.87736 2.133274,1.34219 1.555968,1.02005 3.092898,2.11209 4.567998,3.23401 2.36207,1.78787 4.66363,3.77543 6.85171,5.87165 9.01922,8.68655 15.12387,18.89797 17.18275,28.79443 0.89207,4.28793 1.01184,8.37932 0.34236,12.19266 12.72379,-0.0786 26.16854,-8.30177 34.80666,-21.47825 7.16955,-10.91486 9.96289,-23.48773 7.67675,-34.47655 -0.22726,-1.09236 -0.50342,-2.17455 -0.83803,-3.21056 -8.95596,0.77461 -23.44325,-3.78066 -39.33077,-12.45011 -1.09214,-0.58925 -2.19105,-1.2111 -3.30967,-1.84587 -3.07057,-1.75954 -6.09628,-3.630464 -9.00787,-5.525135 -0.82722,-0.542303 -1.64153,-1.104302 -2.43615,-1.65339 l -0.8537,-0.587823 c -2.89933,-1.999278 -5.35922,-3.766795 -7.50464,-5.412632 -3.76518,-2.890747 -7.266095,-5.81946 -10.40089,-8.705276 -8.915009,-2.380677 -20.03922,3.097407 -26.624335,13.14226 z"
         id="path1180" />
      <g
         transform="matrix(-0.03391901,-0.1630389,-0.1630389,0.03391901,190.61554,217.7465)"
         id="g1184" />
      <g
         transform="matrix(-0.03391901,-0.1630389,-0.1630389,0.03391901,190.61554,217.7465)"
         id="g1186" />
      <g
         transform="matrix(-0.03391901,-0.1630389,-0.1630389,0.03391901,190.61554,217.7465)"
         id="g1188" />
      <g
         transform="matrix(-0.03391901,-0.1630389,-0.1630389,0.03391901,190.61554,217.7465)"
         id="g1190" />
      <g
         transform="matrix(-0.03391901,-0.1630389,-0.1630389,0.03391901,190.61554,217.7465)"
         id="g1192" />
      <g
         transform="matrix(-0.03391901,-0.1630389,-0.1630389,0.03391901,190.61554,217.7465)"
         id="g1194" />
      <g
         transform="matrix(-0.03391901,-0.1630389,-0.1630389,0.03391901,190.61554,217.7465)"
         id="g1196" />
      <g
         transform="matrix(-0.03391901,-0.1630389,-0.1630389,0.03391901,190.61554,217.7465)"
         id="g1198" />
      <g
         transform="matrix(-0.03391901,-0.1630389,-0.1630389,0.03391901,190.61554,217.7465)"
         id="g1200" />
      <g
         transform="matrix(-0.03391901,-0.1630389,-0.1630389,0.03391901,190.61554,217.7465)"
         id="g1202" />
      <g
         transform="matrix(-0.03391901,-0.1630389,-0.1630389,0.03391901,190.61554,217.7465)"
         id="g1204" />
      <g
         transform="matrix(-0.03391901,-0.1630389,-0.1630389,0.03391901,190.61554,217.7465)"
         id="g1206" />
      <g
         transform="matrix(-0.03391901,-0.1630389,-0.1630389,0.03391901,190.61554,217.7465)"
         id="g1208" />
      <g
         transform="matrix(-0.03391901,-0.1630389,-0.1630389,0.03391901,190.61554,217.7465)"
         id="g1210" />
      <g
         transform="matrix(-0.03391901,-0.1630389,-0.1630389,0.03391901,190.61554,217.7465)"
         id="g1212" />
    </g>
  </g>
</svg>
